<svg width="132" height="33" viewBox="0 0 132 33" fill="none" xmlns="http://www.w3.org/2000/svg">
<path d="M28.816 31.952H29.776L24.784 15.2C23.536 10.976 22.72 7.616 21.52 7.616H20.08C17.776 7.616 17.968 3.152 13.84 3.152H7.6L0.16 31.904H1.216L4.384 19.712H25.168L28.816 31.952ZM7.888 6.128H13.552C16.288 6.128 16.768 10.736 20.032 10.736H21.712C22.768 10.736 23.536 14.288 24.256 16.688H5.152L7.888 6.128ZM52.1834 16.112H50.8394C48.5354 16.112 47.8154 13.328 45.3674 13.328H37.4474C36.5834 13.328 35.8634 13.76 35.2874 14.576V0.799998H34.3274V32.048H35.2874V30.752C35.8154 31.52 36.5834 32 37.6874 32H50.1194C54.0074 32 55.5914 30.992 55.5914 26.24V23.264C55.5914 19.232 54.8714 16.112 52.1834 16.112ZM54.5834 26.24C54.5834 29.696 51.5594 29.024 50.1194 29.024L37.7354 28.976C35.9114 28.976 35.2874 27.776 35.2874 26.192V18.848C35.2874 17.696 35.9594 16.352 37.4954 16.352H44.7434C46.9034 16.4 47.5274 19.136 50.7914 19.136H52.3754C54.0074 19.136 54.5834 19.664 54.5834 23.264V26.24ZM74.5881 32C78.4761 32 80.0601 30.992 80.0601 26.24V23.264C80.0601 19.232 79.3401 16.112 76.6521 16.112H75.3081C73.0041 16.112 72.2841 13.328 69.8361 13.328H61.9161C60.1401 13.328 58.7961 15.104 58.7961 18.8V26.096C58.7961 28.976 59.3721 32 62.1561 32H74.5881ZM59.7561 26.192V18.848C59.7561 17.696 60.4281 16.352 61.9641 16.352H69.2121C71.3721 16.4 71.9961 19.136 75.2601 19.136H76.8441C78.4761 19.136 79.0521 19.664 79.0521 23.264V26.24C79.0521 29.696 76.0281 29.024 74.5881 29.024L62.2041 28.976C60.3801 28.976 59.7561 27.776 59.7561 26.192ZM104.697 13.232V26.384C104.697 27.536 104.025 28.88 102.489 28.88H95.2413C93.0813 28.832 92.4573 26.096 89.1933 26.096H87.6093C85.9773 26.096 85.4013 25.568 85.4013 21.968V13.232H84.3453L84.3933 21.968C84.3933 26 85.1133 29.12 87.8013 29.12H89.1453C91.4493 29.12 92.1693 31.904 94.6172 31.904H102.537C103.401 31.904 104.121 31.472 104.697 30.656V32H105.657V13.232H104.697ZM130.163 24.848C130.163 28.448 129.587 29.072 127.955 29.072H126.611C124.067 29.072 123.587 27.632 121.283 27.632C119.219 27.632 118.211 28.976 116.243 28.976H115.235C113.699 28.976 113.075 27.632 113.075 26.48V16.016H127.955V13.328L113.075 13.28V3.2H112.115V13.28H108.803V16.016H112.115V26.48C112.115 30.176 113.459 32 115.187 32H116.339C118.259 32 119.075 30.608 121.235 30.608C123.635 30.608 124.163 32 126.563 32H127.763C130.451 32 131.123 28.88 131.123 24.848H130.163Z" fill="black"/>
</svg>
