<svg width="93" height="16" viewBox="0 0 93 16" fill="none" xmlns="http://www.w3.org/2000/svg">
<path d="M14.8885 14.976H15.3685L12.8725 6.59999C12.2485 4.48799 11.8405 2.80799 11.2405 2.80799H10.5205C9.36849 2.80799 9.46449 0.575989 7.40049 0.575989H4.28049L0.560486 14.952H1.08849L2.67249 8.85599H13.0645L14.8885 14.976ZM4.42449 2.06399H7.25649C8.62449 2.06399 8.86449 4.36799 10.4965 4.36799H11.3365C11.8645 4.36799 12.2485 6.14399 12.6085 7.34399H3.05649L4.42449 2.06399Z" fill="black"/>
<path d="M28.6122 13.008L24.6522 10.08C24.3882 9.86399 24.1242 9.71999 23.8602 9.59999H27.1722C29.8362 9.59999 30.6762 8.11199 30.6762 5.11199C30.6762 2.66399 29.9802 0.599988 27.6762 0.599988C26.6202 0.599988 25.9722 1.29599 24.7722 1.29599C23.4522 1.29599 22.5162 0.599988 21.1962 0.599988H18.1002V15H18.6522V9.59999H22.5402L27.9162 14.352C28.8282 14.88 29.9082 15 30.8202 15V13.416C29.9322 13.536 29.5242 13.536 28.6122 13.008ZM18.6522 8.13599V1.99199H21.1962C22.5882 1.99199 23.5002 2.71199 24.7722 2.71199C25.9242 2.71199 26.5962 1.99199 27.6762 1.99199C28.7802 1.99199 30.1722 2.54399 30.1722 5.11199C30.1722 7.84799 28.6362 8.13599 27.1722 8.13599H18.6522Z" fill="black"/>
<path d="M45.973 0.599988C45.013 0.599988 43.621 1.46399 42.541 1.46399C41.341 1.46399 40.093 0.599988 38.893 0.575989H32.701V2.23199H39.277C39.469 2.23199 39.661 2.25599 39.853 2.30399V15H40.381V2.44799C41.101 2.71199 41.725 3.11999 42.517 3.11999C43.549 3.11999 44.869 2.23199 45.541 2.23199H47.197V0.599988H45.973Z" fill="black"/>
<path d="M61.1749 0.599988V5.99999H59.8309C58.7749 5.99999 58.1269 6.69599 56.9269 6.69599C55.6069 6.69599 54.6709 5.99999 53.3509 5.99999H49.9189V0.599988H49.3429V15H49.9189V7.51199H53.3509C54.7429 7.51199 55.6549 8.23199 56.9269 8.23199C58.0789 8.23199 58.7509 7.51199 59.8309 7.51199H61.1749V15H61.7509V0.599988H61.1749Z" fill="black"/>
<path d="M76.6827 0.599988V9.67199C76.6827 13.728 73.5627 13.536 72.9147 13.536H71.1867C69.9627 13.536 69.5787 12.216 67.9467 11.904C67.7547 11.904 66.9867 11.712 66.5307 11.496C65.6907 11.088 65.1387 10.296 65.1387 9.40799V2.13599H67.7547V0.599988H64.6587V9.67199C64.6587 11.088 65.1387 12.744 66.6267 13.128C67.0827 13.248 67.4427 13.416 67.9467 13.536C69.5067 13.848 69.8187 15.168 71.0427 15.168H72.9147C73.8507 15.168 77.0667 15.168 77.2107 10.008V0.599988H76.6827Z" fill="black"/>
<path d="M90.3231 13.008L86.3631 10.08C86.0991 9.86399 85.8351 9.71999 85.5711 9.59999H88.8831C91.5471 9.59999 92.3871 8.11199 92.3871 5.11199C92.3871 2.66399 91.6911 0.599988 89.3871 0.599988C88.3311 0.599988 87.6831 1.29599 86.4831 1.29599C85.1631 1.29599 84.2271 0.599988 82.9071 0.599988H79.8111V15H80.3631V9.59999H84.2511L89.6271 14.352C90.5391 14.88 91.6191 15 92.5311 15V13.416C91.6431 13.536 91.2351 13.536 90.3231 13.008ZM80.3631 8.13599V1.99199H82.9071C84.2991 1.99199 85.2111 2.71199 86.4831 2.71199C87.6351 2.71199 88.3071 1.99199 89.3871 1.99199C90.4911 1.99199 91.8831 2.54399 91.8831 5.11199C91.8831 7.84799 90.3471 8.13599 88.8831 8.13599H80.3631Z" fill="black"/>
</svg>
