<svg width="133" height="16" viewBox="0 0 133 16" fill="none" xmlns="http://www.w3.org/2000/svg">
<path d="M3.2496 15L9.3456 15.024C12.0336 15.024 13.2816 14.352 13.2816 11.04C13.2816 7.296 12.1536 7.152 9.29759 7.152H4.3536C3.6336 7.152 1.3296 7.536 1.3296 4.752C1.3296 1.776 3.3936 2.136 4.3536 2.136C5.7456 2.136 6.6576 2.856 7.9296 2.856C9.0816 2.856 9.75359 2.136 10.8336 2.136C12.8016 2.136 12.8016 2.904 12.8016 4.104L13.1856 4.128C13.1856 2.712 13.3296 0.623998 10.8336 0.623998C9.7776 0.623998 9.1296 1.32 7.9296 1.32C6.6096 1.32 5.6736 0.599998 4.3536 0.599998C1.6896 0.599998 0.873596 1.824 0.873596 4.776C0.873596 7.152 1.8576 8.544 4.3536 8.544H9.32159C10.9776 8.544 12.8736 8.16 12.8736 11.064C12.8736 13.968 10.8576 13.536 9.3696 13.536L3.2496 13.512C1.2816 13.512 1.28159 12.72 1.28159 11.52L0.897598 11.496C0.897598 12.912 0.753596 15 3.2496 15Z" fill="black"/>
<path d="M25.0941 15.24C27.0381 15.24 28.5261 13.752 28.5261 10.776V6.144C28.5261 4.176 28.1661 2.112 26.7261 2.112H25.4061C24.2541 2.112 22.5741 0.335999 21.3501 0.335999H18.1821C16.2621 0.335999 15.3021 1.944 15.3021 4.8V10.776C15.3021 13.752 16.3821 15.24 18.1821 15.24H25.0941ZM15.7821 10.776V4.8C15.7821 1.944 17.3421 1.848 18.1821 1.848H21.2061C22.0461 1.848 23.7501 3.624 25.3821 3.624H26.8221C27.7341 3.624 28.0221 4.392 28.0221 6.144V10.776C28.0221 13.104 25.8141 13.752 25.0941 13.752H18.1821C17.4621 13.752 15.7821 13.104 15.7821 10.776Z" fill="black"/>
<path d="M33.4605 15L39.5565 15.024C42.2445 15.024 43.4925 14.352 43.4925 11.04C43.4925 7.296 42.3645 7.152 39.5085 7.152H34.5645C33.8445 7.152 31.5405 7.536 31.5405 4.752C31.5405 1.776 33.6045 2.136 34.5645 2.136C35.9565 2.136 36.8685 2.856 38.1405 2.856C39.2925 2.856 39.9645 2.136 41.0445 2.136C43.0125 2.136 43.0125 2.904 43.0125 4.104L43.3965 4.128C43.3965 2.712 43.5405 0.623998 41.0445 0.623998C39.9885 0.623998 39.3405 1.32 38.1405 1.32C36.8205 1.32 35.8845 0.599998 34.5645 0.599998C31.9005 0.599998 31.0845 1.824 31.0845 4.776C31.0845 7.152 32.0685 8.544 34.5645 8.544H39.5325C41.1885 8.544 43.0845 8.16 43.0845 11.064C43.0845 13.968 41.0685 13.536 39.5805 13.536L33.4605 13.512C31.4925 13.512 31.4925 12.72 31.4925 11.52L31.1085 11.496C31.1085 12.912 30.9645 15 33.4605 15Z" fill="black"/>
<path d="M58.185 15L58.113 0.599998H57.585L57.609 7.656C57.153 6.12 56.385 4.752 55.233 4.752H52.929C51.777 4.752 51.777 0.599998 48.729 0.599998H45.609L45.681 15H46.233L46.161 2.112H48.417C51.033 2.112 50.601 6.264 52.737 6.264H55.209C56.697 6.264 57.489 8.4 57.609 10.704L57.633 15H58.185Z" fill="black"/>
<path d="M70.3988 15.24C72.3428 15.24 73.8308 13.752 73.8308 10.776V6.144C73.8308 4.176 73.4708 2.112 72.0308 2.112H70.7108C69.5588 2.112 67.8788 0.335999 66.6548 0.335999H63.4868C61.5668 0.335999 60.6068 1.944 60.6068 4.8V10.776C60.6068 13.752 61.6868 15.24 63.4868 15.24H70.3988ZM61.0868 10.776V4.8C61.0868 1.944 62.6468 1.848 63.4868 1.848H66.5108C67.3508 1.848 69.0548 3.624 70.6868 3.624H72.1268C73.0388 3.624 73.3268 4.392 73.3268 6.144V10.776C73.3268 13.104 71.1188 13.752 70.3988 13.752H63.4868C62.7668 13.752 61.0868 13.104 61.0868 10.776Z" fill="black"/>
<path d="M95.3252 0.623998L91.9892 13.488H90.4292C89.8532 13.488 89.3732 12.144 88.5332 11.352L91.3652 0.599998H90.7652L87.3812 13.488H84.1892C83.3972 13.488 82.9652 11.64 81.3332 11.64H80.4932C79.9412 11.64 79.6292 10.44 79.2692 9.24L77.0852 2.064H79.7252V0.575998C78.6932 0.575998 78.4772 0.599998 77.5412 0.599998H76.0772L78.9572 10.176C79.3652 11.52 79.6292 13.152 80.5892 13.152H81.3092C82.4612 13.152 82.8212 15 84.0452 15H87.5732L88.1252 12.936C88.7492 13.728 89.4452 15 90.2852 15H92.2052L95.9252 0.623998H95.3252Z" fill="black"/>
<path d="M101.429 15L107.525 15.024C110.213 15.024 111.461 14.352 111.461 11.04C111.461 7.296 110.333 7.152 107.477 7.152H102.533C101.813 7.152 99.5093 7.536 99.5093 4.752C99.5093 1.776 101.573 2.136 102.533 2.136C103.925 2.136 104.837 2.856 106.109 2.856C107.261 2.856 107.933 2.136 109.013 2.136C110.981 2.136 110.981 2.904 110.981 4.104L111.365 4.128C111.365 2.712 111.509 0.623998 109.013 0.623998C107.957 0.623998 107.309 1.32 106.109 1.32C104.789 1.32 103.853 0.599998 102.533 0.599998C99.8693 0.599998 99.0533 1.824 99.0533 4.776C99.0533 7.152 100.037 8.544 102.533 8.544H107.501C109.157 8.544 111.053 8.16 111.053 11.064C111.053 13.968 109.037 13.536 107.549 13.536L101.429 13.512C99.4613 13.512 99.4613 12.72 99.4613 11.52L99.0773 11.496C99.0773 12.912 98.9333 15 101.429 15Z" fill="black"/>
<path d="M124.762 13.008L119.122 10.536C121.306 10.536 120.874 8.016 122.386 8.016H123.106C124.066 8.016 125.026 6.48 125.266 5.064L126.01 0.599998H125.386L124.834 4.128C124.618 5.448 123.754 6.48 123.202 6.48H122.362C120.37 6.48 120.154 9.024 118.978 9.024H114.178V0.599998H113.626V15H114.178V10.536H117.274L124.066 14.352C124.978 14.88 126.058 15 126.97 15V13.416C126.082 13.536 125.674 13.536 124.762 13.008Z" fill="black"/>
<path d="M131.065 13.536V2.784C131.329 2.952 131.689 3.096 132.409 3.096V1.56C130.705 1.56 131.185 0.623998 129.505 0.623998H128.977V2.16C129.769 2.16 130.177 2.28 130.489 2.424V13.56H129.001V15L132.433 14.976V13.536H131.065Z" fill="black"/>
</svg>
